<svg width="977" height="200" viewBox="0 0 977 200" fill="none" xmlns="http://www.w3.org/2000/svg">
<path fill-rule="evenodd" clip-rule="evenodd" d="M83.3336 58.3942V52.736C83.3336 51.2249 82.117 50 80.6162 50H52.7174C51.2166 50 49.9999 51.225 50 52.7361L50.001 76.935C50.001 80.2983 52.2825 83.2263 55.5259 84.0253L142.081 105.348C146.053 106.327 149.888 103.358 149.999 99.2722C149.995 95.7435 149.999 92.2148 149.999 88.6861C149.999 85.3228 147.718 82.4671 144.474 81.6681L127.024 77.4127C126.049 77.1748 125.362 76.2953 125.362 75.2844V74.7036C125.362 73.6983 126.042 72.822 127.01 72.5789L147.94 67.3236C149.15 67.0197 150 65.9249 150 64.6689L149.999 52.7359C149.999 51.2249 148.783 50 147.282 50H119.383C117.883 50 116.666 51.225 116.666 52.736L116.666 77.2999C116.666 80.6633 118.857 83.5076 122.101 84.3066L139.648 88.6419C140.62 88.8822 141.304 89.7602 141.304 90.7687V94.2876C141.304 95.7085 139.981 96.7531 138.611 96.4142L60.3512 77.0519C59.3793 76.8114 58.6959 75.9335 58.6959 74.9253V74.733C58.6959 73.7285 59.3742 72.8529 60.3415 72.6088L81.2771 67.3254C82.486 67.0203 83.3338 65.9263 83.3338 64.6715L83.3336 58.3942Z" fill="black"/>
<path d="M83.3344 133.23L83.3342 147.264C83.3342 148.775 82.1176 150 80.6168 150H52.7178C51.217 150 50.0004 148.775 50.0004 147.264L50.0001 135.348C50 134.092 50.8486 132.998 52.0581 132.693L72.9911 127.422C73.9588 127.178 74.6377 126.303 74.6377 125.298V124.394C74.6377 123.385 73.9533 122.507 72.9803 122.267L55.5259 117.967C52.2825 117.168 50.001 114.312 50.001 110.949L50.0045 99.635C50.1367 95.5671 53.9595 92.581 57.9197 93.5566L144.475 114.88C147.719 115.679 150 118.607 150 121.97V147.264C150 148.775 148.783 150 147.283 150H119.384C117.884 150 116.667 148.775 116.667 147.264V135.365C116.667 134.11 117.515 133.016 118.724 132.711L139.658 127.427C140.625 127.183 141.304 126.308 141.304 125.303V124.029C141.304 123.02 140.619 122.142 139.646 121.902L61.3862 102.622C60.0169 102.285 58.6959 103.329 58.6959 104.749V108.861C58.6959 109.872 59.3829 110.751 60.3583 110.989L77.8092 115.245C81.0525 116.044 83.334 118.972 83.334 122.335L83.3344 133.23Z" fill="black"/>
<path d="M853.926 133.467H866.296C867.842 133.467 868.675 132.634 868.675 131.088V127.758C868.675 125.973 867.723 125.498 866.653 124.784C864.988 123.595 863.441 122.524 863.441 119.432V106.229C863.441 99.5681 866.415 95.4051 872.362 95.4051C878.428 95.4051 881.521 99.4492 881.521 106.11V131.088C881.521 132.396 882.591 133.467 883.9 133.467H896.27C897.816 133.467 898.649 132.634 898.649 131.088V127.758C898.649 125.973 897.697 125.498 896.627 124.784C894.961 123.595 893.415 122.524 893.415 119.432V106.229C893.415 99.5681 896.389 95.4051 902.336 95.4051C908.402 95.4051 911.495 99.4492 911.495 106.11V131.088C911.495 132.396 912.565 133.467 913.873 133.467H926.244C927.79 133.467 928.622 132.634 928.622 131.088V127.758C928.622 125.973 927.671 125.498 926.6 124.784C924.935 123.595 923.389 122.524 923.389 119.432V105.634C923.389 92.9073 916.966 85.4139 905.785 85.4139C900.195 85.4139 895.437 87.6738 890.679 93.502C887.825 88.2685 882.71 85.4139 875.811 85.4139C869.864 85.4139 864.75 88.0306 862.014 92.5505H861.657C860.706 88.9822 858.327 86.3654 853.331 86.3654H848.692C847.146 86.3654 846.314 87.198 846.314 88.7443V92.3126C846.314 93.8589 847.265 94.3346 848.336 95.0483C850.001 96.2377 851.547 97.3082 851.547 100.401V131.088C851.547 132.396 852.618 133.467 853.926 133.467ZM201.283 133.467H208.896C210.204 133.467 211.274 132.396 211.274 131.088V106.943C211.274 104.445 212.226 104.088 214.605 104.445L238.037 108.251C240.059 108.608 240.772 109.797 240.772 111.938V131.088C240.772 132.396 241.843 133.467 243.151 133.467H250.764C252.072 133.467 253.143 132.396 253.143 131.088V68.2861C253.143 66.9777 252.072 65.9072 250.764 65.9072H243.151C241.843 65.9072 240.772 66.9777 240.772 68.2861V93.8589C240.772 96.3567 239.821 96.7135 237.442 96.3567L214.01 92.5505C211.988 92.1936 211.274 91.0042 211.274 88.8632V68.2861C211.274 66.9777 210.204 65.9072 208.896 65.9072H201.283C199.975 65.9072 198.904 66.9777 198.904 68.2861V131.088C198.904 132.396 199.975 133.467 201.283 133.467ZM285.138 134.418C292.632 134.418 299.412 132.396 304.169 127.044C304.883 126.211 305.002 125.498 304.169 124.784L298.936 120.383C298.103 119.669 297.508 119.669 296.676 120.502C293.464 123.476 289.182 124.665 285.376 124.665C278.002 124.665 273.244 120.74 272.292 113.96H304.764C306.072 113.96 306.905 113.247 307.024 111.819C307.856 97.3082 299.768 85.4139 283.949 85.4139C269.438 85.4139 260.16 95.9998 260.16 110.035C260.16 124.427 269.914 134.418 285.138 134.418ZM272.53 105.039C273.601 99.4492 277.169 95.1672 284.068 95.1672C290.967 95.1672 294.535 99.4492 295.13 105.039H272.53ZM328.672 125.022C324.746 125.022 321.535 123.238 321.535 119.313C321.535 115.506 324.865 113.722 328.672 113.722H340.804C340.804 121.454 335.332 125.022 328.672 125.022ZM326.412 134.418C333.073 134.418 338.306 132.396 341.755 126.687H342.112C343.064 130.85 345.562 133.467 350.557 133.467H355.315C356.861 133.467 357.694 132.634 357.694 131.088V127.52C357.694 125.973 356.742 125.498 355.672 124.784C354.007 123.595 352.46 122.524 352.46 119.432V105.872C352.46 93.9778 346.394 85.4139 332.121 85.4139C325.341 85.4139 319.275 87.7928 314.636 92.7884C313.685 93.8589 313.566 94.9293 314.874 95.8809L319.87 99.6871C320.94 100.52 321.892 100.52 323.081 99.2113C325.341 96.9514 328.315 95.5241 332.121 95.5241C338.187 95.5241 340.804 98.3787 340.804 102.423C340.804 103.85 339.971 104.802 338.068 104.802H327.482C317.729 104.802 310.235 110.154 310.235 119.907C310.235 129.423 316.896 134.418 326.412 134.418ZM384.337 124.308C376.725 124.308 372.086 118.004 372.086 109.916C372.086 102.066 376.487 95.5241 384.337 95.5241C392.187 95.5241 396.707 101.828 396.707 109.916C396.707 118.123 391.95 124.308 384.337 124.308ZM381.72 134.418C388.976 134.418 394.328 131.564 397.183 126.211H397.54C398.61 130.85 401.108 133.467 406.104 133.467H411.337C412.884 133.467 413.716 132.634 413.716 131.088V127.52C413.716 125.973 412.765 125.498 411.694 124.784C410.029 123.595 408.483 122.524 408.483 119.432V68.2861C408.483 66.9777 407.412 65.9072 406.104 65.9072H398.967C397.659 65.9072 396.588 66.9777 396.588 68.2861V91.8368H396.35C392.663 87.317 387.786 85.4139 381.601 85.4139C368.399 85.4139 359.835 95.2862 359.835 109.797C359.835 123.595 367.923 134.418 381.72 134.418ZM422.042 150H429.179C430.487 150 431.558 148.929 431.558 147.621V127.996H431.796C435.602 132.872 440.241 134.418 446.426 134.418C459.747 134.418 468.192 124.546 468.192 109.916C468.192 95.643 459.747 85.4139 446.426 85.4139C440.36 85.4139 434.174 87.6738 430.844 93.502H430.487C429.417 88.9822 427.038 86.3654 422.042 86.3654H416.809C415.262 86.3654 414.43 87.198 414.43 88.7443V92.3126C414.43 93.8589 415.381 94.3346 416.452 95.0483C418.117 96.2377 419.663 97.3082 419.663 100.401V147.621C419.663 148.929 420.734 150 422.042 150ZM443.69 124.189C435.602 124.189 431.32 118.004 431.32 109.916C431.32 101.471 436.315 95.643 443.809 95.643C451.54 95.643 455.941 101.828 455.941 109.916C455.941 118.123 451.421 124.189 443.69 124.189ZM477.351 133.467H489.721C491.267 133.467 492.1 132.634 492.1 131.088V127.758C492.1 125.973 491.148 125.498 490.078 124.784C488.413 123.595 486.866 122.524 486.866 119.432V106.11C486.866 99.5681 489.959 95.4051 496.501 95.4051C503.043 95.4051 506.135 99.5681 506.135 106.11V131.088C506.135 132.396 507.206 133.467 508.514 133.467H520.884C522.43 133.467 523.263 132.634 523.263 131.088V127.758C523.263 125.973 522.312 125.498 521.241 124.784C519.576 123.595 518.03 122.524 518.03 119.432V105.515C518.03 93.3831 512.201 85.4139 500.069 85.4139C495.073 85.4139 490.435 86.7223 487.104 91.1232H486.866V68.2861C486.866 66.9777 485.796 65.9072 484.488 65.9072H477.351C476.043 65.9072 474.972 66.9777 474.972 68.2861V131.088C474.972 132.396 476.043 133.467 477.351 133.467ZM550.501 134.418C565.845 134.418 575.836 123.476 575.836 110.035C575.836 95.643 564.893 85.4139 550.501 85.4139C536.704 85.4139 525.166 94.6915 525.166 110.035C525.166 124.665 535.871 134.418 550.501 134.418ZM550.501 124.07C542.175 124.07 537.061 118.004 537.061 110.035C537.061 100.163 543.959 95.643 550.501 95.643C558.47 95.643 563.823 102.066 563.823 110.035C563.823 118.004 558.47 124.07 550.501 124.07ZM585.589 133.467H597.96C599.506 133.467 600.338 132.634 600.338 131.088V127.758C600.338 125.973 599.387 125.498 598.316 124.784C596.651 123.595 595.105 122.524 595.105 119.432V106.229C595.105 99.5681 598.079 95.4051 604.62 95.4051C611.281 95.4051 614.374 99.4492 614.374 106.11V131.088C614.374 132.396 615.444 133.467 616.753 133.467H629.123C630.669 133.467 631.502 132.634 631.502 131.088V127.758C631.502 125.973 630.55 125.498 629.48 124.784C627.814 123.595 626.268 122.524 626.268 119.432V105.634C626.268 92.9073 619.845 85.4139 608.07 85.4139C601.528 85.4139 596.413 88.0306 593.678 92.5505H593.321C592.369 88.9822 589.99 86.3654 584.995 86.3654H580.356C578.81 86.3654 577.977 87.198 577.977 88.7443V92.3126C577.977 93.8589 578.929 94.3346 579.999 95.0483C581.664 96.2377 583.211 97.3082 583.211 100.401V131.088C583.211 132.396 584.281 133.467 585.589 133.467ZM658.502 134.418C665.995 134.418 672.775 132.396 677.533 127.044C678.246 126.211 678.365 125.498 677.533 124.784L672.299 120.383C671.467 119.669 670.872 119.669 669.564 120.978C666.828 123.476 662.546 124.665 658.74 124.665C651.365 124.665 646.607 120.74 645.656 113.96H678.127C679.436 113.96 680.268 113.247 680.387 111.819C681.22 97.3082 673.132 85.4139 657.312 85.4139C642.801 85.4139 633.524 95.9998 633.524 110.035C633.524 124.427 643.277 134.418 658.502 134.418ZM645.894 105.039C646.964 99.4492 650.533 95.1672 657.431 95.1672C664.33 95.1672 667.898 99.4492 668.493 105.039H645.894ZM704.771 134.418C715.238 134.418 723.802 130.018 723.802 119.313C723.802 110.868 717.736 108.37 710.48 106.11L704.652 104.326C700.608 103.136 697.158 102.066 697.158 99.2113C697.158 95.9998 700.489 94.9293 704.295 94.9293C708.339 94.9293 711.432 96.5945 713.573 98.4976C714.524 99.4492 715.714 99.6871 716.784 98.8545L721.185 95.2862C722.374 94.3346 722.612 92.6694 721.542 91.5989C717.141 87.198 711.432 85.4139 704.295 85.4139C694.066 85.4139 685.74 89.8148 685.74 99.4492C685.74 107.775 691.092 110.987 699.299 113.603L704.89 115.388C709.172 116.815 712.264 117.885 712.264 120.621C712.264 123.951 708.934 124.784 704.771 124.784C699.775 124.784 695.969 122.762 693.352 119.907C692.401 118.837 691.211 118.718 690.141 119.432L684.788 123.357C683.48 124.308 683.718 125.617 684.788 126.687C689.784 132.277 696.921 134.418 704.771 134.418ZM736.529 134.418C740.811 134.418 744.26 130.969 744.26 126.568C744.26 122.286 740.811 118.837 736.529 118.837C732.128 118.837 728.678 122.286 728.678 126.568C728.678 130.969 732.128 134.418 736.529 134.418ZM771.974 134.418C779.943 134.418 786.366 131.564 790.767 126.925C791.481 126.092 791.362 125.022 790.529 124.308L784.701 119.313C783.749 118.48 782.679 118.718 781.965 119.669C779.586 122.405 776.137 124.07 771.974 124.07C763.648 124.07 758.533 118.004 758.533 110.035C758.533 100.163 765.432 95.643 771.974 95.643C776.137 95.643 779.586 97.3082 781.846 100.163C782.56 101.114 783.749 101.233 784.582 100.52L790.529 95.643C791.362 94.9293 791.481 93.8589 790.767 93.0262C786.128 88.2685 779.586 85.4139 771.974 85.4139C758.176 85.4139 746.639 94.6915 746.639 110.035C746.639 124.665 757.344 134.418 771.974 134.418ZM818.838 134.418C834.181 134.418 844.173 123.476 844.173 110.035C844.173 95.643 833.23 85.4139 818.838 85.4139C805.04 85.4139 793.503 94.6915 793.503 110.035C793.503 124.665 804.208 134.418 818.838 134.418ZM818.838 124.07C810.512 124.07 805.397 118.004 805.397 110.035C805.397 100.163 812.296 95.643 818.838 95.643C826.807 95.643 832.159 102.066 832.159 110.035C832.159 118.004 826.807 124.07 818.838 124.07Z" fill="black"/>
</svg>
