<svg width="1325" height="1325" viewBox="0 0 1325 1325" fill="none" xmlns="http://www.w3.org/2000/svg">
<path fill-rule="evenodd" clip-rule="evenodd" d="M479.003 207.001L479.003 135C479.003 123.954 470.049 115 459.003 115H131C119.954 115 111 123.955 111 135.001L111.012 410.207C111.012 447.07 136.199 479.16 172.006 487.917L1127.58 721.619C1171.42 732.342 1213.76 699.805 1214.99 655.023C1214.95 616.349 1214.99 577.674 1214.99 539C1214.99 502.138 1189.8 470.84 1154 462.083L961.347 415.443C950.579 412.836 942.994 403.197 942.994 392.117V385.752C942.994 374.733 950.498 365.13 961.189 362.465L1199.83 302.978C1208.74 300.757 1214.99 292.754 1214.99 283.571L1214.99 135C1214.99 123.954 1206.04 115 1194.99 115H866.993C855.947 115 846.993 123.954 846.993 135L846.995 414.207C846.995 451.07 871.184 482.243 906.99 491L1100.71 538.516C1111.44 541.149 1118.99 550.772 1118.99 561.825V600.392C1118.99 615.965 1104.39 627.414 1089.27 623.699L225.278 411.489C214.547 408.853 207.003 399.231 207.003 388.181V386.073C207.003 375.065 214.492 365.468 225.17 362.793L463.866 302.991C472.765 300.762 479.006 292.764 479.005 283.59L479.003 207.001Z" fill="#EA6419"/>
<path d="M479.012 1027.2L479.009 1191C479.009 1202.05 470.055 1211 459.009 1211H131.005C119.959 1211 111.005 1202.05 111.005 1191L111.001 1042.62C111.001 1033.44 117.247 1025.44 126.151 1023.21L364.822 963.547C375.506 960.876 383.001 951.276 383.001 940.263V930.358C383.001 919.299 375.444 909.672 364.703 907.045L172.006 859.917C136.199 851.16 111.012 819.862 111.012 783L111.051 659C112.509 614.415 154.714 581.688 198.434 592.381L1154.01 826.083C1189.81 834.84 1215 866.93 1215 903.793V1191C1215 1202.05 1206.04 1211 1195 1211H867.002C855.956 1211 847.002 1202.05 847.002 1191V1042.81C847.002 1033.63 853.243 1025.63 862.141 1023.4L1100.83 963.605C1111.5 960.929 1118.99 951.333 1118.99 940.324V926.358C1118.99 915.299 1111.44 905.672 1100.69 903.045L236.704 691.74C221.587 688.043 207.003 699.49 207.003 715.053V760.117C207.003 771.196 214.587 780.836 225.356 783.443L418.013 830.083C453.82 838.84 479.008 870.93 479.008 907.793L479.012 1027.2Z" fill="#EA6419"/>
</svg>
