<svg width="200" height="200" viewBox="0 0 200 200" fill="none" xmlns="http://www.w3.org/2000/svg">
<path fill-rule="evenodd" clip-rule="evenodd" d="M83.3336 58.3942V52.736C83.3336 51.2249 82.117 50 80.6162 50H52.7174C51.2166 50 49.9999 51.225 50 52.7361L50.001 76.935C50.001 80.2983 52.2825 83.2263 55.5259 84.0253L142.081 105.348C146.053 106.327 149.888 103.358 149.999 99.2722C149.995 95.7435 149.999 92.2148 149.999 88.6861C149.999 85.3228 147.718 82.4671 144.474 81.6681L127.024 77.4127C126.049 77.1748 125.362 76.2953 125.362 75.2844V74.7036C125.362 73.6983 126.042 72.822 127.01 72.5789L147.94 67.3236C149.15 67.0197 150 65.9249 150 64.6689L149.999 52.7359C149.999 51.2249 148.783 50 147.282 50H119.383C117.883 50 116.666 51.225 116.666 52.736L116.666 77.2999C116.666 80.6633 118.857 83.5076 122.101 84.3066L139.648 88.6419C140.62 88.8822 141.304 89.7602 141.304 90.7687V94.2876C141.304 95.7085 139.981 96.7531 138.611 96.4142L60.3512 77.0519C59.3793 76.8114 58.6959 75.9335 58.6959 74.9253V74.733C58.6959 73.7285 59.3742 72.8529 60.3415 72.6088L81.2771 67.3254C82.486 67.0203 83.3338 65.9263 83.3338 64.6715L83.3336 58.3942Z" fill="black"/>
<path d="M83.3344 133.23L83.3342 147.264C83.3342 148.775 82.1176 150 80.6168 150H52.7178C51.217 150 50.0004 148.775 50.0004 147.264L50.0001 135.348C50 134.092 50.8486 132.998 52.0581 132.693L72.9911 127.422C73.9588 127.178 74.6377 126.303 74.6377 125.298V124.394C74.6377 123.385 73.9533 122.507 72.9803 122.267L55.5259 117.967C52.2825 117.168 50.001 114.312 50.001 110.949L50.0045 99.635C50.1367 95.5671 53.9595 92.581 57.9197 93.5566L144.475 114.88C147.719 115.679 150 118.607 150 121.97V147.264C150 148.775 148.783 150 147.283 150H119.384C117.884 150 116.667 148.775 116.667 147.264V135.365C116.667 134.11 117.515 133.016 118.724 132.711L139.658 127.427C140.625 127.183 141.304 126.308 141.304 125.303V124.029C141.304 123.02 140.619 122.142 139.646 121.902L61.3862 102.622C60.0169 102.285 58.6959 103.329 58.6959 104.749V108.861C58.6959 109.872 59.3829 110.751 60.3583 110.989L77.8092 115.245C81.0525 116.044 83.334 118.972 83.334 122.335L83.3344 133.23Z" fill="black"/>
</svg>
